<svg width="18" height="17" viewBox="0 0 18 17" fill="none" xmlns="http://www.w3.org/2000/svg">
<path d="M1.56483 7.70007H17.2169C17.4245 7.70007 17.6235 7.78435 17.7703 7.93436C17.9171 8.08437 17.9995 8.28783 17.9995 8.49997C17.9995 8.71212 17.9171 8.91558 17.7703 9.06559C17.6235 9.2156 17.4245 9.29987 17.2169 9.29987H1.56483C1.35727 9.29987 1.15821 9.2156 1.01145 9.06559C0.864679 8.91558 0.782227 8.71212 0.782227 8.49997C0.782227 8.28783 0.864679 8.08437 1.01145 7.93436C1.15821 7.78435 1.35727 7.70007 1.56483 7.70007Z" fill="#676768"/>
<path d="M1.89061 8.5L8.38153 15.1328C8.52848 15.283 8.61104 15.4867 8.61104 15.6991C8.61104 15.9115 8.52848 16.1152 8.38153 16.2654C8.23457 16.4156 8.03526 16.5 7.82744 16.5C7.61962 16.5 7.42031 16.4156 7.27336 16.2654L0.229919 9.06633C0.157038 8.99202 0.0992151 8.90375 0.0597617 8.80657C0.0203084 8.70939 0 8.60521 0 8.5C0 8.39479 0.0203084 8.29061 0.0597617 8.19343C0.0992151 8.09625 0.157038 8.00798 0.229919 7.93367L7.27336 0.734581C7.42031 0.584381 7.61962 0.5 7.82744 0.5C8.03526 0.5 8.23457 0.584381 8.38153 0.734581C8.52848 0.88478 8.61104 1.0885 8.61104 1.30091C8.61104 1.51332 8.52848 1.71704 8.38153 1.86724L1.89061 8.5Z" fill="#676768"/>
</svg>
