<svg width="16" height="16" viewBox="0 0 16 16" fill="none" xmlns="http://www.w3.org/2000/svg">
<path opacity="0.7" d="M5.93604 4.49969C5.94448 2.97704 6.01174 2.15243 6.54755 1.61452C7.16029 0.99939 8.14645 0.99939 10.1188 0.99939H10.8161C12.7884 0.99939 13.7746 0.99939 14.3873 1.61452C15 2.22965 15 3.21968 15 5.19974V10.8002C15 12.7803 15 13.7703 14.3873 14.3854C13.7746 15.0006 12.7884 15.0006 10.8161 15.0006H10.1188C8.14645 15.0006 7.16029 15.0006 6.54755 14.3854C6.01174 13.8475 5.94448 13.0229 5.93604 11.5003" stroke="#A194D2" stroke-linecap="round"/>
<path d="M10.1186 7.99959H1.05334M1.05334 7.99959L3.49398 5.89941M1.05334 7.99959L3.49398 10.0998" stroke="#A194D2" stroke-linecap="round" stroke-linejoin="round"/>
</svg>
